<svg width="60" height="60" viewBox="0 0 60 60" fill="none" xmlns="http://www.w3.org/2000/svg">
<g clip-path="url(#clip0_1_891)">
<path d="M30 35.6251C27.8342 35.6269 25.7018 35.092 23.7933 34.0683C21.8847 33.0446 20.2596 31.564 19.0631 29.7587L22.1869 27.6824C23.0422 28.9716 24.2032 30.0291 25.5665 30.7606C26.9298 31.4922 28.4528 31.875 30 31.875C31.5471 31.875 33.0702 31.4922 34.4335 30.7606C35.7967 30.0291 36.9578 28.9716 37.8131 27.6824L40.9369 29.7587C39.7404 31.564 38.1152 33.0446 36.2067 34.0683C34.2982 35.092 32.1657 35.6269 30 35.6251Z" fill="white"/>
<path d="M37.5 14.9999C36.7583 14.9999 36.0333 15.2199 35.4166 15.6319C34.7999 16.044 34.3193 16.6297 34.0355 17.3149C33.7516 18.0001 33.6774 18.7541 33.8221 19.4815C33.9668 20.209 34.3239 20.8771 34.8484 21.4016C35.3728 21.926 36.041 22.2832 36.7684 22.4279C37.4958 22.5726 38.2498 22.4983 38.9351 22.2145C39.6203 21.9307 40.206 21.45 40.618 20.8333C41.0301 20.2166 41.25 19.4916 41.25 18.7499C41.2549 18.2561 41.1612 17.7663 40.9745 17.3091C40.7877 16.852 40.5117 16.4366 40.1625 16.0875C39.8133 15.7383 39.398 15.4622 38.9408 15.2755C38.4836 15.0888 37.9938 14.9951 37.5 14.9999Z" fill="white"/>
<path d="M22.5 14.9999C21.7583 14.9999 21.0333 15.2199 20.4166 15.6319C19.7999 16.044 19.3193 16.6297 19.0355 17.3149C18.7516 18.0001 18.6774 18.7541 18.8221 19.4815C18.9668 20.209 19.3239 20.8771 19.8484 21.4016C20.3728 21.926 21.041 22.2832 21.7684 22.4279C22.4958 22.5726 23.2498 22.4983 23.9351 22.2145C24.6203 21.9307 25.206 21.45 25.618 20.8333C26.0301 20.2166 26.25 19.4916 26.25 18.7499C26.2549 18.2561 26.1612 17.7663 25.9745 17.3091C25.7877 16.852 25.5117 16.4366 25.1625 16.0875C24.8133 15.7383 24.398 15.4622 23.9408 15.2755C23.4836 15.0888 22.9938 14.9951 22.5 14.9999Z" fill="white"/>
<path d="M33.2546 56.25L30 54.375L37.5 41.25H48.75C49.2427 41.2508 49.7307 41.1544 50.1861 40.9663C50.6414 40.7781 51.0551 40.5019 51.4035 40.1535C51.7519 39.8051 52.0281 39.3914 52.2163 38.9361C52.4044 38.4807 52.5008 37.9927 52.5 37.5V11.25C52.5008 10.7573 52.4044 10.2693 52.2163 9.81394C52.0281 9.35859 51.7519 8.94486 51.4035 8.59648C51.0551 8.24809 50.6414 7.9719 50.1861 7.78374C49.7307 7.59558 49.2427 7.49916 48.75 7.5H11.25C10.7573 7.49916 10.2693 7.59558 9.81394 7.78374C9.35859 7.9719 8.94486 8.24809 8.59648 8.59648C8.24809 8.94486 7.9719 9.35859 7.78374 9.81394C7.59558 10.2693 7.49916 10.7573 7.5 11.25V37.5C7.49916 37.9927 7.59558 38.4807 7.78374 38.9361C7.9719 39.3914 8.24809 39.8051 8.59648 40.1535C8.94486 40.5019 9.35859 40.7781 9.81394 40.9663C10.2693 41.1544 10.7573 41.2508 11.25 41.25H28.125V45H11.25C10.265 45.0002 9.28969 44.8063 8.37967 44.4294C7.46965 44.0526 6.64279 43.5002 5.94632 42.8037C5.24984 42.1072 4.6974 41.2803 4.32055 40.3703C3.9437 39.4603 3.74983 38.485 3.75 37.5V11.25C3.7497 10.265 3.9435 9.2896 4.3203 8.37953C4.69711 7.46945 5.24954 6.64254 5.94604 5.94604C6.64254 5.24954 7.46945 4.69711 8.37953 4.3203C9.2896 3.9435 10.265 3.7497 11.25 3.75H48.75C49.735 3.7497 50.7104 3.9435 51.6205 4.3203C52.5306 4.69711 53.3575 5.24954 54.054 5.94604C54.7505 6.64254 55.3029 7.46945 55.6797 8.37953C56.0565 9.2896 56.2503 10.265 56.25 11.25V37.5C56.2502 38.485 56.0563 39.4603 55.6794 40.3703C55.3026 41.2803 54.7502 42.1072 54.0537 42.8037C53.3572 43.5002 52.5303 44.0526 51.6203 44.4294C50.7103 44.8063 49.735 45.0002 48.75 45H39.6836L33.2546 56.25Z" fill="white"/>
</g>
<defs>
<clipPath id="clip0_1_891">
<rect width="60" height="60" fill="white"/>
</clipPath>
</defs>
</svg>
